<?xml version="1.0" encoding="UTF-8"?>
<svg xmlns="http://www.w3.org/2000/svg" viewBox="0 0 1024 600">
  <defs>
    <style>
      .cls-1 {
        opacity: .75;
      }

      .cls-1, .cls-2 {
        fill: #aaa;
      }

      .cls-3 {
        font-family: MyriadPro-Regular, 'Myriad Pro';
        font-size: 22.04px;
      }

      .cls-3, .cls-4 {
        fill: #f2f2f2;
      }

      .cls-5 {
        fill: #e2b937;
      }

      .cls-6 {
        fill: #51b781;
      }

      .cls-7 {
        fill: #0c2126;
      }

      .cls-8 {
        fill: #2f323c;
        font-size: 45px;
      }

      .cls-8, .cls-4, .cls-9 {
        font-family: Sana, Sana;
      }

      .cls-10 {
        stroke-width: 1.59px;
      }

      .cls-10, .cls-11, .cls-12, .cls-13, .cls-14, .cls-15, .cls-16, .cls-17, .cls-18, .cls-19, .cls-20, .cls-21, .cls-22, .cls-23 {
        fill: none;
        stroke-miterlimit: 10;
      }

      .cls-10, .cls-21 {
        stroke: #f4f1ea;
      }

      .cls-24 {
        fill: #6da6ba;
      }

      .cls-25 {
        fill: #e05838;
        opacity: .58;
      }

      .cls-26 {
        fill: #b8c6c9;
      }

      .cls-27 {
        fill: #d0762c;
      }

      .cls-11 {
        stroke-width: 1.03px;
      }

      .cls-11, .cls-12, .cls-13, .cls-16, .cls-17, .cls-18, .cls-19, .cls-20, .cls-22, .cls-23 {
        stroke: #000;
      }

      .cls-12 {
        stroke-width: 1.06px;
      }

      .cls-28 {
        fill: #ddcfb5;
      }

      .cls-13 {
        stroke-width: 1.54px;
      }

      .cls-14 {
        stroke: #2c8454;
      }

      .cls-14, .cls-15 {
        stroke-width: .95px;
      }

      .cls-15 {
        stroke: #6b3b17;
      }

      .cls-29 {
        fill: #9f3d1b;
      }

      .cls-30 {
        fill: #ada6a5;
      }

      .cls-16 {
        stroke-width: .4px;
      }

      .cls-17 {
        stroke-width: .27px;
      }

      .cls-18 {
        stroke-width: .39px;
      }

      .cls-31 {
        fill: #353433;
        opacity: .84;
      }

      .cls-19 {
        stroke-width: .47px;
      }

      .cls-4 {
        font-size: 58.28px;
      }

      .cls-20 {
        stroke-width: .51px;
      }

      .cls-32 {
        fill: #a59d88;
      }

      .cls-21 {
        opacity: .87;
        stroke-width: 2.36px;
      }

      .cls-33 {
        opacity: .55;
      }

      .cls-34 {
        fill: #a57a74;
      }

      .cls-35 {
        fill: #54461d;
        opacity: .89;
      }

      .cls-22 {
        stroke-width: 2.06px;
      }

      .cls-9 {
        fill: #f7f7f7;
        font-size: 54px;
      }

      .cls-23 {
        stroke-width: 2.57px;
      }
    </style>
  </defs>
<g id="logo">
    <rect class="cls-32" x="915.9" y="474.34" width="28.45" height="66.9"/>
    <path class="cls-5" d="M945.2,451.49c2.76-.68,5.65-1.05,8.63-1.05,19.75,0,35.77,16.01,35.77,35.77s-16.01,35.77-35.77,35.77c-3.28,0-6.46-.44-9.48-1.27l.85-69.22Z"/>
    <path class="cls-31" d="M924.03,521.98c-7.72-7.89-12.49-18.7-12.49-30.61,0-24.13,19.52-43.7,43.64-43.78v-31.11c-40.8,0-73.87,33.07-73.87,73.87,0,11.32,2.55,22.04,7.1,31.63h35.63Z"/>
    <rect class="cls-35" x="944.78" y="407.44" width="10.4" height="66.9"/>
    <circle class="cls-25" cx="966.98" cy="528.51" r="12.72"/>
    <line class="cls-12" x1="951.12" y1="512.67" x2="989.6" y2="512.67"/>
    <line class="cls-17" x1="873.91" y1="525.7" x2="983.65" y2="525.7"/>
    <line class="cls-16" x1="923.13" y1="533.15" x2="995.41" y2="533.15"/>
    <line class="cls-10" x1="932.25" y1="423.78" x2="932.25" y2="568.88"/>
    <line class="cls-16" x1="886.91" y1="544.32" x2="950.49" y2="544.32"/>
    <line class="cls-12" x1="905.26" y1="553.03" x2="961.44" y2="553.03"/>
    <line class="cls-17" x1="912.52" y1="532.85" x2="912.52" y2="573.21"/>
    <line class="cls-17" x1="922.02" y1="537.18" x2="922.02" y2="568.88"/>
    <rect class="cls-34" x="916.99" y="544.44" width="4.96" height="4.96"/>
    <rect class="cls-30" x="919.25" y="549.4" width="2.7" height="2.86"/>
</g>
<g id="temp">
    <polygon id="temp_triangle" class="cls-1" points="234.81 480.09 172.03 509.59 211.06 545.26 234.81 480.09"/>
    <text id="temp_value" class="cls-4" transform="translate(181.68 517.07)"><tspan x="0" y="0">33</tspan></text>
    <text id="degree_sign" class="cls-3" transform="translate(226.11 490.38)"><tspan x="0" y="0">o</tspan></text>
</g>
<g id="prayer_times">
    <rect id="fajr_rect" class="cls-24" x="59.65" y="68.48" width="48" height="87.35"/>
    <rect id="sunrise_rect" class="cls-26" x="107.65" y="75" width="130.57" height="74.32"/>
    <rect id="dhuhr_rect" class="cls-6" x="238.22" y="59.72" width="96.12" height="104.88"/>
    <rect id="asr_rect" class="cls-27" x="334.34" y="79.73" width="113.55" height="64.85"/>
    <rect id="maghrib_rect" class="cls-29" x="447.89" y="68.48" width="56.15" height="87.35"/>
    <rect id="isha_rect" class="cls-7" x="504.04" y="59.72" width="300.26" height="104.88"/>
    <line id="sunrise_line" class="cls-20" x1="107.65" y1="41.96" x2="107.65" y2="212.77"/>
    <line id="dhuhr_line" class="cls-13" x1="238.22" y1="31.82" x2="238.22" y2="181.57"/>
    <line id="asr_line" class="cls-11" x1="334.34" y1="34.94" x2="334.34" y2="215.89"/>
    <line id="maghrib_line" class="cls-22" x1="447.89" y1="57.17" x2="447.89" y2="202.63"/>
    <line id="isha_line" class="cls-20" x1="504.04" y1="46.64" x2="504.04" y2="215.89"/>
    <line id="end_line" class="cls-20" x1="804.3" y1="43.07" x2="804.3" y2="182.69"/>
    <line id="fajr_line" class="cls-23" x1="59.65" y1="38.45" x2="59.65" y2="233.05"/>
    <g id="top_lines">
    <line class="cls-18" x1="34.11" y1="57.09" x2="752.24" y2="57.09"/>
    <line class="cls-11" x1="47.17" y1="51.32" x2="877.82" y2="51.32"/>
    <line class="cls-20" x1="232.02" y1="47.11" x2="972.97" y2="47.11"/>
    </g>
</g>
<g id="time_and_next">
    <circle id="next_circle" class="cls-27 cls-33" cx="414.63" cy="336.31" r="45.34"/>
    <circle id="current_circle" class="cls-6 cls-33" cx="328.07" cy="304.08" r="61.08"/>
    <circle id="current_stroke" class="cls-14" cx="311.96" cy="304.08" r="61.08"/>
    <g id="current_rects">
    <rect class="cls-2" x="308.43" y="267" width="21.19" height="45.5"/>
    <rect class="cls-31" x="294.89" y="307.57" width="53.46" height="21.19"/>
    </g>
    <circle id="next_stroke" class="cls-15" cx="426.29" cy="336.27" r="47.37"/>
    <text id="current_hour" class="cls-9" transform="translate(297.03 296.47)"><tspan x="0" y="0">13</tspan></text>
    <text id="current_minute" class="cls-9" transform="translate(305.79 337.23)"><tspan x="0" y="0">27</tspan></text>
    <text id="next_time" class="cls-8" transform="translate(396.08 349.48)"><tspan x="0" y="0">1.59</tspan></text>
    <g id="anchor">
    <line class="cls-19" x1="263.17" y1="239.61" x2="354.73" y2="239.61"/>
    <line class="cls-19" x1="292.58" y1="187.73" x2="292.58" y2="257.88"/>
    <line id="white_line" class="cls-21" x1="287.85" y1="138.03" x2="287.85" y2="285.25"/>
    </g>
</g>
</svg>